<mxfile host="app.diagrams.net" modified="2023-07-12T11:19:10.115Z" agent="Mozilla/5.0 (Windows NT 10.0; Win64; x64) AppleWebKit/537.36 (KHTML, like Gecko) Chrome/115.0.0.0 Safari/537.36" etag="0DEIxgNeXihj4TwODGzg" version="21.6.2" type="github">
  <diagram name="Page-1" id="WjsOByWbptH1UTmTBSRd">
    <mxGraphModel dx="926" dy="476" grid="1" gridSize="10" guides="1" tooltips="1" connect="1" arrows="1" fold="1" page="1" pageScale="1" pageWidth="1169" pageHeight="827" math="0" shadow="0">
      <root>
        <mxCell id="0" />
        <mxCell id="1" parent="0" />
        <mxCell id="S_bsu0lsFFjEXhXayahH-6" value="" style="outlineConnect=0;dashed=0;verticalLabelPosition=bottom;verticalAlign=top;align=center;html=1;shape=mxgraph.aws3.android;fillColor=#AE1F23;gradientColor=default;" vertex="1" parent="1">
          <mxGeometry x="10" y="181" width="450" height="464" as="geometry" />
        </mxCell>
        <mxCell id="t6nOFOiq1bmdriytFh3z-15" value="devices" style="sketch=0;outlineConnect=0;gradientColor=none;fontColor=#545B64;strokeColor=none;fillColor=#000000;dashed=0;verticalLabelPosition=bottom;verticalAlign=top;align=center;html=1;fontSize=12;fontStyle=0;aspect=fixed;shape=mxgraph.aws4.illustration_devices;pointerEvents=1" parent="1" vertex="1">
          <mxGeometry x="1000" y="670" width="123.29" height="90" as="geometry" />
        </mxCell>
        <mxCell id="S_bsu0lsFFjEXhXayahH-10" style="edgeStyle=orthogonalEdgeStyle;rounded=0;orthogonalLoop=1;jettySize=auto;html=1;" edge="1" parent="1" source="t6nOFOiq1bmdriytFh3z-10">
          <mxGeometry relative="1" as="geometry">
            <mxPoint x="609.9999999999998" y="279" as="targetPoint" />
          </mxGeometry>
        </mxCell>
        <mxCell id="t6nOFOiq1bmdriytFh3z-10" value="Core Systems" style="image;aspect=fixed;perimeter=ellipsePerimeter;align=center;fontSize=15;verticalAlign=middle;fontColor=#000000;shadow=0;dashed=0;image=img/lib/cumulus/netq_server.svg;strokeColor=#000000;fontFamily=Times New Roman;fontStyle=1;horizontal=1;labelPosition=center;verticalLabelPosition=middle;labelBorderColor=none;labelBackgroundColor=none;html=1;" parent="1" vertex="1">
          <mxGeometry x="380" y="259" width="192" height="40" as="geometry" />
        </mxCell>
        <mxCell id="_XEu1aaeLK_W9UIwpHIt-5" value="System API" style="image;aspect=fixed;perimeter=ellipsePerimeter;html=1;align=center;fontSize=15;verticalAlign=middle;fontColor=#000000;shadow=0;dashed=0;image=img/lib/cumulus/netq_server.svg;strokeColor=#000000;fontFamily=Times New Roman;fontStyle=1;horizontal=1;labelPosition=center;verticalLabelPosition=middle;labelBackgroundColor=none;" parent="1" vertex="1">
          <mxGeometry x="380" y="349" width="192" height="40" as="geometry" />
        </mxCell>
        <mxCell id="_XEu1aaeLK_W9UIwpHIt-6" value="Broker GUI" style="image;aspect=fixed;perimeter=ellipsePerimeter;html=1;align=center;fontSize=15;verticalAlign=middle;fontColor=#000000;shadow=0;dashed=0;image=img/lib/cumulus/netq_server.svg;strokeColor=#000000;fontFamily=Times New Roman;fontStyle=1;horizontal=1;labelPosition=center;verticalLabelPosition=middle;labelBackgroundColor=none;" parent="1" vertex="1">
          <mxGeometry x="380" y="439" width="192" height="40" as="geometry" />
        </mxCell>
        <mxCell id="_XEu1aaeLK_W9UIwpHIt-4" value="Client GUI" style="image;aspect=fixed;perimeter=ellipsePerimeter;html=1;align=center;fontSize=15;verticalAlign=middle;fontColor=#000000;shadow=0;dashed=0;image=img/lib/cumulus/netq_server.svg;strokeColor=#000000;fontFamily=Times New Roman;fontStyle=1;horizontal=1;labelPosition=center;verticalLabelPosition=middle;labelBackgroundColor=none;" parent="1" vertex="1">
          <mxGeometry x="380" y="529" width="192" height="40" as="geometry" />
        </mxCell>
        <mxCell id="S_bsu0lsFFjEXhXayahH-7" value="" style="html=1;outlineConnect=0;whiteSpace=wrap;shape=mxgraph.archimate3.application;appType=event;archiType=rounded;direction=north;gradientColor=none;" vertex="1" parent="1">
          <mxGeometry x="610" y="263" width="75" height="301" as="geometry" />
        </mxCell>
        <mxCell id="S_bsu0lsFFjEXhXayahH-8" value="&lt;h6&gt;&lt;font face=&quot;Times New Roman&quot; style=&quot;font-size: 22px;&quot;&gt;DB Abstraction Layer&lt;/font&gt;&lt;/h6&gt;" style="text;html=1;strokeColor=none;fillColor=none;align=center;verticalAlign=middle;whiteSpace=wrap;rounded=0;rotation=270;" vertex="1" parent="1">
          <mxGeometry x="516.25" y="398.5" width="262.5" height="30" as="geometry" />
        </mxCell>
      </root>
    </mxGraphModel>
  </diagram>
</mxfile>
